<svg width="107" height="25" viewBox="0 0 107 25" fill="none" xmlns="http://www.w3.org/2000/svg">
<g clip-path="url(#clip0)">
<path d="M31.9266 6.2672C30.7292 6.26609 29.561 6.63701 28.5835 7.32866V0H26.1152V17.4617H28.5835V16.8261C29.3301 17.3515 30.1899 17.6934 31.0933 17.8243C31.9967 17.9552 32.9183 17.8712 33.7832 17.5793C34.6481 17.2874 35.432 16.7957 36.0714 16.1441C36.7108 15.4926 37.1876 14.6994 37.4631 13.8291C37.7387 12.9588 37.8052 12.0358 37.6573 11.1349C37.5095 10.2341 37.1514 9.38075 36.6121 8.64419C36.0728 7.90762 35.3675 7.30855 34.5534 6.89556C33.7394 6.48257 32.8394 6.2673 31.9266 6.2672ZM31.9266 15.419C31.2656 15.4193 30.6194 15.2236 30.0697 14.8566C29.52 14.4897 29.0915 13.9679 28.8384 13.3573C28.5852 12.7467 28.5188 12.0748 28.6475 11.4265C28.7763 10.7781 29.0944 10.1826 29.5616 9.71507C30.0289 9.24757 30.6242 8.92915 31.2724 8.80008C31.9207 8.67101 32.5926 8.73709 33.2032 8.98996C33.8139 9.24283 34.3358 9.67114 34.7031 10.2207C35.0703 10.7703 35.2663 11.4164 35.2663 12.0774C35.2654 12.9631 34.9133 13.8123 34.2873 14.4387C33.6612 15.0652 32.8122 15.4177 31.9266 15.419Z" fill="#4D4D4D"/>
<path d="M80.3193 11.9906C80.3006 10.6917 79.8477 9.43652 79.0326 8.4251C78.2176 7.41368 77.0874 6.70429 75.8223 6.41006C74.5572 6.11582 73.23 6.25368 72.0523 6.80166C70.8747 7.34963 69.9144 8.27615 69.3246 9.4335C68.7348 10.5908 68.5494 11.9123 68.7981 13.1873C69.0468 14.4623 69.7151 15.6172 70.6966 16.4681C71.6781 17.3189 72.9162 17.8166 74.2134 17.8818C75.5106 17.947 76.7924 17.5759 77.8542 16.8278V19.1882C77.864 19.6331 77.7849 20.0756 77.6214 20.4895C77.458 20.9035 77.2135 21.2806 76.9023 21.5988C76.5912 21.9169 76.2196 22.1697 75.8094 22.3423C75.3992 22.5149 74.9586 22.6038 74.5136 22.6038C74.0686 22.6038 73.6281 22.5149 73.2179 22.3423C72.8077 22.1697 72.4361 21.9169 72.1249 21.5988C71.8137 21.2806 71.5692 20.9035 71.4058 20.4895C71.2423 20.0756 71.1632 19.6331 71.1731 19.1882H68.7031C68.7031 20.7291 69.3152 22.207 70.4047 23.2966C71.4942 24.3862 72.972 24.9984 74.5128 24.9984C76.0536 24.9984 77.5314 24.3862 78.6209 23.2966C79.7104 22.207 80.3225 20.7291 80.3225 19.1882V11.9906H80.3193ZM74.5128 15.419C73.8519 15.4193 73.2057 15.2236 72.656 14.8567C72.1063 14.4897 71.6778 13.9679 71.4246 13.3573C71.1715 12.7467 71.105 12.0748 71.2338 11.4265C71.3625 10.7782 71.6806 10.1826 72.1479 9.71508C72.6151 9.24758 73.2105 8.92916 73.8587 8.80009C74.5069 8.67102 75.1788 8.7371 75.7895 8.98997C76.4001 9.24284 76.9221 9.67115 77.2893 10.2207C77.6565 10.7703 77.8525 11.4164 77.8525 12.0774C77.8517 12.9631 77.4996 13.8123 76.8735 14.4387C76.2474 15.0652 75.3984 15.4177 74.5128 15.419Z" fill="#4D4D4D"/>
<path d="M97.3848 2.81909H94.9165V13.7236H97.3848V2.81909Z" fill="#4D4D4D"/>
<path d="M97.3848 15.0668H94.9165V17.4617H97.3848V15.0668Z" fill="#4D4D4D"/>
<path d="M51.9224 12.2477C51.9224 12.192 51.9224 12.1347 51.9224 12.0839C51.9242 10.78 51.488 9.5132 50.6839 8.48676C49.8797 7.46031 48.7542 6.73366 47.4878 6.42333C46.2214 6.113 44.8875 6.23697 43.7 6.77537C42.5125 7.31376 41.5401 8.23538 40.9389 9.39244C40.3377 10.5495 40.1424 11.875 40.3844 13.1563C40.6264 14.4376 41.2916 15.6005 42.2734 16.4585C43.2552 17.3166 44.4967 17.82 45.7987 17.8882C47.1008 17.9563 48.3881 17.5852 49.454 16.8343V17.4682H51.924V12.2477H51.9224ZM46.1241 15.419C45.4633 15.419 44.8172 15.223 44.2678 14.8559C43.7183 14.4887 43.29 13.9668 43.0371 13.3562C42.7842 12.7456 42.718 12.0737 42.847 11.4255C42.9759 10.7773 43.2941 10.1818 43.7614 9.71449C44.2287 9.24716 44.8241 8.9289 45.4723 8.79996C46.1204 8.67102 46.7923 8.7372 47.4028 8.99012C48.0134 9.24304 48.5352 9.67134 48.9024 10.2209C49.2695 10.7704 49.4655 11.4165 49.4655 12.0774C49.4646 12.9634 49.1123 13.8128 48.4859 14.4393C47.8594 15.0658 47.0101 15.4181 46.1241 15.419Z" fill="#4D4D4D"/>
<path d="M86.8693 9.50072C87.4678 9.00464 88.2212 8.73397 88.9986 8.73575H91.6259V6.2672H88.9921C87.7952 6.26611 86.6275 6.63703 85.6507 7.32866V0H83.1823V17.4617H85.6507V16.8277C85.726 16.8802 85.8014 16.9309 85.8783 16.9784C86.071 17.0993 86.2706 17.2087 86.4762 17.3061C86.7687 17.4473 87.0728 17.563 87.3852 17.6517C87.4802 17.6795 87.5752 17.7041 87.6719 17.727C88.1052 17.8284 88.5487 17.88 88.9937 17.881H91.6259V15.419H88.9921C88.3031 15.4213 87.6303 15.2102 87.0659 14.8149C86.5016 14.4196 86.0735 13.8593 85.8402 13.2109C85.6069 12.5626 85.58 11.8579 85.7631 11.1936C85.9462 10.5294 86.3303 9.93801 86.8627 9.50072H86.8693Z" fill="#4D4D4D"/>
<path d="M106.875 8.80782V6.41299H103.535V2.81909H101.06V12.156C101.082 13.6826 101.703 15.1395 102.789 16.2122C103.876 17.2848 105.34 17.8872 106.867 17.8892V15.419C105.981 15.4177 105.132 15.0652 104.506 14.4387C103.88 13.8123 103.528 12.9631 103.527 12.0774V8.80127L106.875 8.80782Z" fill="#4D4D4D"/>
<path d="M66.5459 12.0774C66.5469 11.0001 66.2481 9.94379 65.683 9.02665C65.1179 8.1095 64.3088 7.3677 63.3462 6.88422C62.3836 6.40075 61.3054 6.19469 60.2324 6.28909C59.1593 6.38349 58.1337 6.77463 57.2703 7.41875H54.9264V17.4617H57.3964V12.0774C57.3865 11.6324 57.4657 11.19 57.6291 10.776C57.7926 10.3621 58.0371 9.98497 58.3482 9.66681C58.6594 9.34864 59.031 9.09584 59.4412 8.92325C59.8514 8.75066 60.2919 8.66176 60.7369 8.66176C61.182 8.66176 61.6225 8.75066 62.0327 8.92325C62.4429 9.09584 62.8145 9.34864 63.1257 9.66681C63.4368 9.98497 63.6813 10.3621 63.8448 10.776C64.0082 11.19 64.0874 11.6324 64.0775 12.0774V17.4617H66.5475V12.0774H66.5459Z" fill="#4D4D4D"/>
<path d="M8.70398 8.7554C11.0121 8.75757 13.225 9.67525 14.8574 11.3071C16.4897 12.939 17.4082 15.1518 17.4112 17.46H13.7111C13.7107 16.1318 13.1831 14.858 12.2443 13.9185C11.3055 12.979 10.0321 12.4505 8.70398 12.4492V8.7554Z" fill="#FF0000"/>
<path d="M0 12.4492V8.7554C2.30807 8.758 4.52086 9.6761 6.15292 11.3083C7.78497 12.9405 8.703 15.1534 8.7056 17.4617H5.00715C5.00716 16.1331 4.47977 14.8589 3.54089 13.9191C2.60201 12.9792 1.32843 12.4505 0 12.4492H0Z" fill="#FF0000"/>
<path d="M8.7056 8.75542H5.00715C5.00585 7.42774 4.4779 6.15481 3.53916 5.21599C2.60041 4.27718 1.32758 3.74918 0 3.74788L0 0.0475159C2.30835 0.050118 4.5214 0.968443 6.1535 2.60097C7.7856 4.23351 8.70344 6.44689 8.7056 8.75542Z" fill="#FF0000"/>
<path d="M17.4096 8.75542H13.7111C13.7098 7.42802 13.1821 6.15534 12.2437 5.21657C11.3053 4.2778 10.0329 3.74962 8.70563 3.74788V0.0475159C11.0137 0.0505514 13.2263 0.969068 14.8581 2.60155C16.4898 4.23404 17.4074 6.44717 17.4096 8.75542Z" fill="#FF0000"/>
</g>
<defs>
<clipPath id="clip0">
<rect width="106.875" height="25" fill="white"/>
</clipPath>
</defs>
</svg>
