<svg width="17" height="17" viewBox="0 0 17 17" fill="none" xmlns="http://www.w3.org/2000/svg">
<g clip-path="url(#clip0)">
<path d="M8.5 10.625C9.6736 10.625 10.625 9.6736 10.625 8.5C10.625 7.32639 9.6736 6.375 8.5 6.375C7.32639 6.375 6.375 7.32639 6.375 8.5C6.375 9.6736 7.32639 10.625 8.5 10.625Z" stroke="#00D1CD" stroke-width="1.5" stroke-linecap="round" stroke-linejoin="round"/>
<path d="M14.0333 10.9167C13.939 11.1303 13.9109 11.3673 13.9526 11.5971C13.9942 11.8269 14.1038 12.0389 14.2671 12.2058L14.3096 12.2483C14.4413 12.3799 14.5458 12.5361 14.6171 12.7081C14.6884 12.8801 14.7251 13.0645 14.7251 13.2506C14.7251 13.4368 14.6884 13.6211 14.6171 13.7931C14.5458 13.9651 14.4413 14.1213 14.3096 14.2529C14.178 14.3846 14.0218 14.4891 13.8498 14.5604C13.6778 14.6317 13.4935 14.6684 13.3073 14.6684C13.1211 14.6684 12.9368 14.6317 12.7648 14.5604C12.5928 14.4891 12.4366 14.3846 12.305 14.2529L12.2625 14.2104C12.0956 14.0471 11.8835 13.9376 11.6538 13.8959C11.424 13.8542 11.187 13.8824 10.9733 13.9767C10.7638 14.0665 10.5852 14.2155 10.4593 14.4056C10.3334 14.5956 10.2659 14.8183 10.265 15.0462V15.1667C10.265 15.5424 10.1157 15.9027 9.85007 16.1684C9.58439 16.4341 9.22406 16.5833 8.84833 16.5833C8.47261 16.5833 8.11228 16.4341 7.8466 16.1684C7.58092 15.9027 7.43167 15.5424 7.43167 15.1667V15.1029C7.42618 14.8685 7.35029 14.6411 7.21386 14.4503C7.07743 14.2596 6.88677 14.1143 6.66667 14.0333C6.45302 13.939 6.21603 13.9109 5.98625 13.9526C5.75647 13.9942 5.54444 14.1038 5.3775 14.2671L5.335 14.3096C5.20343 14.4413 5.04719 14.5458 4.87521 14.6171C4.70323 14.6884 4.51888 14.7251 4.33271 14.7251C4.14654 14.7251 3.96219 14.6884 3.79021 14.6171C3.61823 14.5458 3.46199 14.4413 3.33042 14.3096C3.1987 14.178 3.09421 14.0218 3.02292 13.8498C2.95162 13.6778 2.91493 13.4935 2.91493 13.3073C2.91493 13.1211 2.95162 12.9368 3.02292 12.7648C3.09421 12.5928 3.1987 12.4366 3.33042 12.305L3.37292 12.2625C3.53621 12.0956 3.64576 11.8835 3.68742 11.6537C3.72908 11.424 3.70096 11.187 3.60667 10.9733C3.51688 10.7638 3.36779 10.5852 3.17775 10.4593C2.98771 10.3334 2.76502 10.2659 2.53708 10.265H2.41667C2.04094 10.265 1.68061 10.1157 1.41493 9.85007C1.14926 9.58439 1 9.22406 1 8.84833C1 8.47261 1.14926 8.11227 1.41493 7.8466C1.68061 7.58092 2.04094 7.43167 2.41667 7.43167H2.48042C2.71487 7.42618 2.94225 7.35029 3.133 7.21386C3.32375 7.07743 3.46905 6.88677 3.55 6.66667C3.64429 6.45302 3.67242 6.21603 3.63075 5.98625C3.58909 5.75647 3.47955 5.54444 3.31625 5.3775L3.27375 5.335C3.14203 5.20343 3.03754 5.04719 2.96625 4.87521C2.89496 4.70323 2.85826 4.51888 2.85826 4.33271C2.85826 4.14654 2.89496 3.96219 2.96625 3.79021C3.03754 3.61823 3.14203 3.46199 3.27375 3.33042C3.40532 3.1987 3.56156 3.09421 3.73354 3.02292C3.90552 2.95162 4.08987 2.91493 4.27604 2.91493C4.46221 2.91493 4.64656 2.95162 4.81854 3.02292C4.99052 3.09421 5.14676 3.1987 5.27833 3.33042L5.32083 3.37292C5.48777 3.53621 5.6998 3.64576 5.92958 3.68742C6.15936 3.72908 6.39636 3.70096 6.61 3.60667H6.66667C6.87617 3.51688 7.05485 3.36778 7.1807 3.17775C7.30655 2.98771 7.37409 2.76502 7.375 2.53708V2.41667C7.375 2.04094 7.52426 1.68061 7.78993 1.41493C8.05561 1.14926 8.41594 1 8.79167 1C9.16739 1 9.52773 1.14926 9.7934 1.41493C10.0591 1.68061 10.2083 2.04094 10.2083 2.41667V2.48042C10.2092 2.70835 10.2768 2.93104 10.4026 3.12108C10.5285 3.31112 10.7072 3.46021 10.9167 3.55C11.1303 3.64429 11.3673 3.67242 11.5971 3.63075C11.8269 3.58909 12.0389 3.47955 12.2058 3.31625L12.2483 3.27375C12.3799 3.14203 12.5361 3.03754 12.7081 2.96625C12.8801 2.89496 13.0645 2.85826 13.2506 2.85826C13.4368 2.85826 13.6211 2.89496 13.7931 2.96625C13.9651 3.03754 14.1213 3.14203 14.2529 3.27375C14.3846 3.40532 14.4891 3.56156 14.5604 3.73354C14.6317 3.90552 14.6684 4.08987 14.6684 4.27604C14.6684 4.46221 14.6317 4.64656 14.5604 4.81854C14.4891 4.99052 14.3846 5.14676 14.2529 5.27833L14.2104 5.32083C14.0471 5.48777 13.9376 5.6998 13.8959 5.92958C13.8543 6.15936 13.8824 6.39635 13.9767 6.61V6.66667C14.0665 6.87617 14.2156 7.05484 14.4056 7.1807C14.5956 7.30655 14.8183 7.37409 15.0463 7.375H15.1667C15.5424 7.375 15.9027 7.52426 16.1684 7.78993C16.4341 8.05561 16.5833 8.41594 16.5833 8.79167C16.5833 9.16739 16.4341 9.52772 16.1684 9.7934C15.9027 10.0591 15.5424 10.2083 15.1667 10.2083H15.1029C14.875 10.2092 14.6523 10.2768 14.4623 10.4026C14.2722 10.5285 14.1231 10.7072 14.0333 10.9167V10.9167Z" stroke="#00D1CD" stroke-width="1.5" stroke-linecap="round" stroke-linejoin="round"/>
</g>
<defs>
<clipPath id="clip0">
<rect width="17" height="17" fill="white"/>
</clipPath>
</defs>
</svg>
